PathFileType   4   (X/Y/Z)
DataRate	CameraRate	NumFrames	NumMarkers	Units	OrigDataRate	OrigDataStartFrame	OrigNumFrames
120.0	120.0	9	37	mm	120.0	14	110
Frame#	Time	midhip	hip_r	hip_l	knee_r	knee_l	ankle_r	ankle_l	midasis	asis_r	asis_l	psis_r	psis_l	epicondLat_r	epicondLat_l	epicondMed_r	epicondMed_l	malleolusLat_r	malleolusLat_l	malleolusMedv_r	malleolusMedv_l	neck	subclavicle_r	subclavicle_l	sternalnotch	xyphoidprocess	thighwand_r	thighwand_l	upperleg1_r	upperleg1_l	upperleg2_r	upperleg2_l	shankwand_r	shankwand_l	lowerleg1_r	lowerleg1_l	toe_r	toe_l
 	 	X1	Y1	Z1	X2	Y2	Z2	X3	Y3	Z3	X4	Y4	Z4	X5	Y5	Z5	X6	Y6	Z6	X7	Y7	Z7	X8	Y8	Z8	X9	Y9	Z9	X10	Y10	Z10	X11	Y11	Z11	X12	Y12	Z12	X13	Y13	Z13	X14	Y14	Z14	X15	Y15	Z15	X16	Y16	Z16	X17	Y17	Z17	X18	Y18	Z18	X19	Y19	Z19	X20	Y20	Z20	X21	Y21	Z21	X22	Y22	Z22	X23	Y23	Z23	X24	Y24	Z24	X25	Y25	Z25	X26	Y26	Z26	X27	Y27	Z27	X28	Y28	Z28	X29	Y29	Z29	X30	Y30	Z30	X31	Y31	Z31	X32	Y32	Z32	X33	Y33	Z33	X34	Y34	Z34	X35	Y35	Z35	X36	Y36	Z36	X37	Y37	Z37

	14	0.24167	103.117	833.403	-215.370	112.928	821.176	-155.602	95.090	810.945	-271.260	192.289	454.375	-173.344	185.418	451.758	-324.834	141.074	63.498	-187.583	-114.735	197.104	-358.265	160.246	898.099	-223.310	167.054	905.340	-124.421	153.438	890.858	-322.198	4.114	922.862	-186.139	0.017	918.708	-240.987	206.928	454.979	-120.331	191.751	461.298	-378.117	183.664	450.285	-215.424	187.557	431.468	-274.887	135.598	62.827	-149.480	-114.203	201.498	-396.509	161.946	75.384	-216.992	-90.887	185.744	-337.189	81.789	1337.723	-206.849	178.307	1253.311	-168.337	166.949	1256.287	-275.532	158.593	1267.209	-225.094	194.507	1095.831	-232.822	292.323	657.817	-180.676	283.741	639.385	-286.621	216.786	685.497	-120.094	206.652	669.510	-342.075	229.180	600.834	-123.363	225.765	584.807	-345.556	153.910	177.847	-75.535	-51.854	313.661	-441.240	153.804	187.033	-116.737	-37.339	302.323	-403.162	253.571	40.991	-150.528	-49.579	97.561	-404.343
	15	0.25000	112.000	834.687	-214.796	121.095	822.486	-155.103	104.155	812.329	-270.902	194.809	454.442	-172.516	202.260	454.940	-323.652	141.179	63.449	-187.438	-89.762	191.212	-359.420	168.970	899.429	-222.395	175.006	906.607	-123.498	162.934	892.252	-321.291	12.898	924.261	-186.382	9.167	920.010	-241.220	208.647	454.696	-119.286	208.737	464.577	-376.901	182.164	451.855	-215.527	206.418	434.304	-273.679	135.194	62.819	-149.412	-89.691	196.309	-397.581	161.707	75.525	-216.724	-65.577	180.090	-338.674	91.544	1339.016	-206.519	188.302	1254.746	-168.252	176.515	1257.371	-275.218	168.311	1268.426	-224.975	204.334	1097.069	-232.210	298.184	655.916	-177.849	296.664	644.229	-284.989	222.593	685.038	-117.771	218.198	672.863	-340.983	231.796	599.746	-121.495	239.959	588.631	-344.406	153.278	177.788	-75.163	-31.407	311.270	-440.785	153.194	187.107	-116.320	-16.235	299.516	-402.884	253.183	41.037	-150.039	-20.209	96.180	-407.505
	16	0.25833	120.819	835.669	-214.232	129.308	823.587	-154.641	113.247	813.524	-270.574	197.398	454.478	-171.821	218.870	458.025	-322.502	141.219	63.412	-187.347	-64.244	184.855	-360.298	177.719	900.565	-221.508	183.004	907.664	-122.584	172.435	893.466	-320.431	21.675	925.460	-186.742	18.332	921.092	-241.562	210.448	454.399	-118.391	225.462	467.757	-375.720	173.283	455.617	-216.241	227.657	436.870	-272.558	134.865	62.818	-149.379	-64.483	190.374	-398.400	161.574	75.566	-216.536	-39.760	174.241	-339.652	101.265	1340.112	-206.106	198.312	1256.031	-168.179	186.120	1258.386	-274.977	178.040	1269.464	-224.801	214.321	1098.225	-231.767	303.879	653.884	-175.151	309.315	648.823	-283.487	229.330	684.554	-115.362	228.405	675.878	-340.035	232.215	598.140	-119.868	254.146	592.312	-343.405	153.007	177.673	-74.836	-10.275	307.765	-440.534	153.139	187.050	-115.912	5.291	295.869	-402.769	252.883	41.061	-149.626	9.771	94.289	-409.917
	17	0.26667	129.660	836.433	-213.690	137.595	824.472	-154.213	122.359	814.518	-270.266	200.063	454.472	-171.294	235.225	460.982	-321.392	141.199	63.391	-187.322	-38.201	178.131	-360.893	186.504	901.497	-220.662	191.084	908.504	-121.694	181.924	894.489	-319.630	30.451	926.451	-187.194	27.509	921.947	-241.995	212.404	454.081	-117.698	241.936	470.816	-374.576	182.626	452.837	-216.006	248.046	439.735	-271.461	134.626	62.826	-149.392	-38.560	183.796	-398.972	161.485	75.569	-216.427	-13.415	168.225	-340.151	111.038	1341.026	-205.661	208.181	1257.073	-168.025	195.663	1259.155	-274.780	187.787	1270.309	-224.583	224.027	1099.110	-231.256	309.396	651.755	-172.781	321.662	653.135	-282.034	231.033	682.683	-114.193	239.464	678.731	-339.156	235.670	597.153	-118.266	268.749	595.876	-342.284	153.133	177.503	-74.576	11.625	303.224	-440.514	153.600	186.918	-115.464	27.370	291.406	-402.821	252.683	41.061	-149.314	40.326	91.939	-411.560
	18	0.27500	138.530	836.995	-213.179	145.969	825.138	-153.822	131.483	815.309	-269.982	202.801	454.413	-170.957	251.306	463.788	-320.324	141.147	63.388	-187.372	-11.622	171.110	-361.223	195.328	902.219	-219.873	199.269	909.124	-120.847	191.387	895.314	-318.898	39.236	927.233	-187.705	36.693	922.581	-242.493	214.571	453.735	-117.235	258.162	473.735	-373.468	187.221	452.009	-215.660	264.680	442.577	-270.767	134.485	62.847	-149.457	-11.908	176.690	-399.315	161.376	75.592	-216.405	13.867	161.593	-340.495	120.877	1341.725	-205.179	218.081	1257.864	-167.860	205.207	1259.615	-274.454	197.553	1270.950	-224.335	233.654	1099.696	-230.589	314.773	649.573	-170.902	333.700	657.153	-280.567	235.192	681.494	-113.109	251.722	681.524	-338.116	239.471	596.189	-117.112	282.781	599.198	-341.134	153.619	177.293	-74.404	34.298	297.784	-440.714	154.586	186.692	-115.072	50.333	286.153	-402.902	252.586	41.039	-149.117	71.421	89.204	-412.433
	19	0.28333	147.424	837.376	-212.708	154.446	825.593	-153.475	140.615	815.899	-269.726	205.608	454.294	-170.815	267.097	466.425	-319.298	141.102	63.402	-187.499	15.523	163.851	-361.327	204.199	902.734	-219.157	207.582	909.529	-120.066	200.816	895.940	-318.248	48.039	927.815	-188.238	45.874	923.012	-243.025	216.979	453.348	-117.012	274.136	476.504	-372.394	189.792	451.971	-214.233	279.540	445.197	-270.368	134.438	62.884	-149.584	15.483	169.182	-399.456	161.333	75.541	-216.517	41.917	154.576	-340.628	130.746	1342.216	-204.634	228.171	1258.395	-167.673	214.748	1259.872	-274.147	207.338	1271.383	-224.059	243.398	1100.063	-230.047	320.099	647.387	-169.614	345.446	660.882	-279.051	241.703	680.953	-112.259	263.847	684.175	-337.063	244.628	595.389	-116.124	296.067	602.270	-340.088	154.378	177.065	-74.340	57.693	291.634	-441.087	155.846	186.446	-114.884	74.008	280.360	-403.085	252.583	40.997	-149.033	103.033	86.179	-412.548
	20	0.29167	156.385	837.651	-212.327	163.025	825.847	-153.181	149.748	816.297	-269.509	208.489	454.104	-170.858	282.578	468.888	-318.311	141.093	63.431	-187.697	43.286	156.405	-361.254	213.120	903.048	-218.533	216.033	909.727	-119.371	210.207	896.369	-317.696	56.873	928.212	-188.763	55.047	923.265	-243.558	219.645	452.908	-117.014	289.844	479.116	-371.347	193.713	451.537	-212.153	294.958	447.785	-269.648	134.475	62.938	-149.773	43.610	161.403	-399.427	161.325	75.395	-216.781	70.424	147.758	-340.346	140.668	1342.517	-204.043	238.337	1258.690	-167.414	224.287	1259.978	-273.925	217.149	1271.611	-223.748	253.150	1100.240	-229.641	325.487	645.239	-168.939	356.927	664.334	-277.472	249.093	680.594	-111.912	275.611	686.621	-336.032	251.107	594.745	-115.388	309.379	605.247	-338.877	155.314	176.837	-74.392	81.708	284.987	-441.552	157.041	186.258	-114.945	97.791	274.351	-403.453	252.658	40.942	-149.048	135.145	82.976	-411.929
	21	0.30000	165.404	837.831	-212.092	171.710	825.921	-152.948	158.874	816.514	-269.337	211.457	453.839	-171.052	297.732	471.173	-317.356	141.139	63.473	-187.953	71.723	148.828	-361.046	222.099	903.170	-218.017	224.636	909.735	-118.782	219.561	896.605	-317.252	65.756	928.447	-189.251	64.216	923.370	-244.064	222.566	452.406	-117.205	305.264	481.567	-370.323	198.369	450.903	-211.053	310.847	450.226	-268.830	134.577	63.013	-150.019	72.462	153.489	-399.256	161.342	75.201	-217.157	99.565	141.115	-339.785	150.632	1342.610	-203.428	248.384	1258.796	-167.162	233.918	1259.910	-273.593	226.991	1271.650	-223.404	262.871	1100.233	-229.164	331.063	643.154	-168.822	368.165	667.527	-275.833	255.787	679.967	-112.119	287.045	688.843	-334.902	257.263	594.212	-115.255	322.681	608.038	-337.546	156.346	176.623	-74.550	106.211	278.062	-442.017	158.103	186.099	-115.242	121.966	268.209	-403.712	252.789	40.881	-149.139	167.742	79.721	-410.607
	22	0.30833	174.413	837.849	-212.002	180.506	825.832	-152.780	167.993	816.565	-269.216	214.534	453.499	-171.348	312.539	473.283	-316.426	141.236	63.528	-188.249	100.880	141.189	-360.730	231.145	903.110	-217.620	233.408	909.567	-118.314	228.882	896.654	-316.926	74.707	928.546	-189.685	73.394	923.358	-244.518	225.731	451.838	-117.525	320.369	483.853	-369.314	202.662	450.648	-211.745	326.483	452.466	-268.205	134.725	63.107	-150.306	102.013	145.568	-398.964	161.484	74.964	-217.588	129.085	134.664	-339.027	160.594	1342.513	-202.801	258.375	1258.755	-166.853	243.655	1259.658	-273.144	236.858	1271.519	-223.044	272.671	1100.063	-228.520	336.898	641.128	-169.152	379.185	670.473	-274.156	262.006	679.102	-112.714	298.180	690.852	-333.755	262.764	593.491	-115.885	335.687	610.621	-336.284	157.434	176.428	-74.790	131.071	271.055	-442.396	159.143	185.943	-115.719	146.663	262.062	-403.718	252.954	40.818	-149.278	200.799	76.540	-408.629
